<svg xmlns="http://www.w3.org/2000/svg" viewBox="0 0 1600 900">
  <rect width="1600" height="900" fill="#f7f7f7"/>
  <rect x="168" y="146" width="1264" height="608" rx="8" fill="#ffffff" stroke="#242424" stroke-width="3"/>
  <rect x="168" y="146" width="1264" height="76" fill="#eeeeee" stroke="#242424" stroke-width="3"/>
  <circle cx="218" cy="184" r="12" fill="#242424"/>
  <circle cx="258" cy="184" r="12" fill="#777777"/>
  <circle cx="298" cy="184" r="12" fill="#b8b8b8"/>
  <path d="M270 320h430M270 382h320M270 444h500M270 506h390" stroke="#242424" stroke-width="16" stroke-linecap="round"/>
  <path d="M884 312c90-48 208-30 270 42 64 74 34 178-64 210-82 26-180-4-226-70-50-72-26-150 20-182Z" fill="#eeeeee" stroke="#242424" stroke-width="4"/>
  <path d="M894 524c70-100 154-164 260-190" fill="none" stroke="#242424" stroke-width="8" stroke-linecap="round"/>
  <path d="M1030 350l38 70 78-8" fill="none" stroke="#777777" stroke-width="8" stroke-linecap="round" stroke-linejoin="round"/>
  <path d="M254 640h1088" stroke="#d7d7d7" stroke-width="4"/>
  <path d="M254 680h760" stroke="#d7d7d7" stroke-width="4"/>
</svg>
