<svg xmlns="http://www.w3.org/2000/svg" viewBox="0 0 1600 900">
  <rect width="1600" height="900" fill="#f7f7f7"/>
  <rect x="180" y="130" width="1240" height="640" rx="8" fill="#ffffff" stroke="#242424" stroke-width="3"/>
  <path d="M306 640V260M306 640h840" fill="none" stroke="#242424" stroke-width="5" stroke-linecap="round"/>
  <path d="M360 594c118-190 204-92 306-246 92-138 178-66 288 98 76 112 126 120 192 48" fill="none" stroke="#242424" stroke-width="10" stroke-linecap="round"/>
  <path d="M360 560c154-84 264-72 386 0 164 96 268 36 400-160" fill="none" stroke="#777777" stroke-width="8" stroke-linecap="round"/>
  <circle cx="1120" cy="302" r="54" fill="#eeeeee" stroke="#242424" stroke-width="4"/>
  <circle cx="1240" cy="420" r="54" fill="#eeeeee" stroke="#242424" stroke-width="4"/>
  <circle cx="1110" cy="538" r="54" fill="#eeeeee" stroke="#242424" stroke-width="4"/>
  <path d="M1158 340l44 42M1200 454l-52 48M1116 356l-4 128" stroke="#242424" stroke-width="5"/>
  <path d="M306 704h480" stroke="#d7d7d7" stroke-width="6" stroke-linecap="round"/>
</svg>
